Coordinates
version=1
nRows=9
nColumns=36
inDegrees=yes

Units are S.I. units (second, meters, Newtons, ...)
If the header above contains a line with 'inDegrees', this indicates whether rotational values are in degrees (yes) or radians (no).

endheader
time	pelvis_tilt	pelvis_list	pelvis_rotation	pelvis_tx	pelvis_ty	pelvis_tz	hip_flexion_r	hip_adduction_r	hip_rotation_r	knee_angle_r	knee_angle_r_beta	ankle_angle_r	subtalar_angle_r	mtp_angle_r	hip_flexion_l	hip_adduction_l	hip_rotation_l	knee_angle_l	knee_angle_l_beta	ankle_angle_l	subtalar_angle_l	mtp_angle_l	lumbar_extension	lumbar_bending	lumbar_rotation	arm_flex_r	arm_add_r	arm_rot_r	elbow_flex_r	pro_sup_r	arm_flex_l	arm_add_l	arm_rot_l	elbow_flex_l	pro_sup_l
      1.10000000	    -10.71312209	     -2.37837562	     -3.71739905	     -0.51109602	      1.07428306	     -0.60827804	     36.15886209	     -3.85700550	    -12.94545387	     23.34757330	      0.40749203	    -11.60469861	      4.40007592	     -6.33787575	     37.88106303	    -11.15707585	    -13.04831724	      6.57872858	      0.11482047	    -31.98586057	      2.74139501	     -6.33787575	    -25.22935128	     -0.67762553	      3.07641789	     24.62997501	    -13.65384993	     -6.38108758	    105.35558927	    102.45667890	     -4.32718432	    -13.03697295	     -7.29784427	     88.75008633	    110.00538559
      1.11000000	    -10.48250630	     -2.20287370	     -3.91958703	     -0.49794288	      1.05668685	     -0.60879325	     36.25240936	     -4.10586508	    -12.55247440	     21.50333011	      0.37530391	    -12.72592261	      2.86424652	     -6.39642583	     37.91017160	    -11.43143033	    -12.30460075	      7.56526545	      0.13203879	    -32.32290434	      2.17792071	     -6.39642583	    -25.33848510	     -1.16627352	      3.03238418	     24.31484687	    -14.56729245	     -6.16223787	    106.66421888	    101.93194870	     -5.15777892	    -13.65339034	     -8.37971672	     91.65675627	    109.48889207
      1.12000000	    -10.10907819	     -1.99850453	     -3.99084190	     -0.48493947	      1.03823541	     -0.60956440	     36.45407062	     -4.64927742	    -12.36530943	     20.63062613	      0.36007235	    -13.46284697	      2.20952754	     -6.50503430	     38.07328231	    -11.69261800	    -11.60694866	      9.23300791	      0.16114639	    -32.73044128	      2.24025566	     -6.50503430	    -25.62793914	     -1.64249350	      3.10660595	     24.05586242	    -15.73147376	     -6.04972123	    108.31269442	     99.78913163	     -5.64926204	    -14.45859624	     -8.83126358	     94.67894107	    106.87926323
      1.13000000	     -9.80618655	     -1.78985833	     -3.99371663	     -0.47236869	      1.01849867	     -0.61034991	     36.94578112	     -5.12495469	    -11.47900210	     20.41167599	      0.35625095	    -15.17158148	     -1.08230673	     -6.55906464	     38.59329278	    -11.84617472	    -10.17198548	     11.56659512	      0.20187517	    -33.51899150	      0.19552085	     -6.55906464	    -25.85127916	     -2.12267198	      2.86191686	     24.20611972	    -16.63931151	     -5.96216594	    109.52853176	     99.59506024	     -6.30680624	    -15.17603877	     -9.96520873	     97.74202055	    107.04030627
      1.14000000	     -9.33333588	     -1.55993996	     -3.90897532	     -0.45987835	      0.99788530	     -0.61128006	     37.48468402	     -5.78124858	    -10.69209902	     21.08335238	      0.36797392	    -15.43227120	     -2.76413161	     -6.62106205	     39.19293630	    -11.94903672	     -8.90555927	     14.52923624	      0.25358301	    -34.11313966	     -1.05396846	     -6.62106205	    -26.29457061	     -2.58073028	      2.49395661	     24.67288573	    -17.66526780	     -5.66188925	    110.73201586	     99.37337513	     -6.82480719	    -16.00452119	    -11.03620602	    100.86511234	    107.19444923
      1.15000000	     -8.86500669	     -1.35696783	     -3.69222817	     -0.44748774	      0.97601742	     -0.61241916	     38.19655225	     -6.54958602	    -10.08052277	     22.32184695	      0.38958972	    -15.47525761	     -3.16408136	     -6.68499366	     39.98380574	    -11.90711534	     -7.29438279	     17.71626870	      0.30920722	    -35.38633784	     -2.21658927	     -6.68499366	    -26.72305969	     -2.93704607	      1.97678046	     25.38395833	    -18.70094872	     -5.31919482	    111.89723102	     99.33187381	     -7.25140355	    -16.87132217	    -12.23106392	    104.01978556	    107.67375158
      1.16000000	     -8.56813162	     -1.18971432	     -3.31327473	     -0.43540645	      0.95264545	     -0.61397774	     39.24399779	     -7.41752577	     -9.56564717	     23.89557056	      0.41705638	    -15.67754628	     -2.39109078	     -6.74251848	     41.17416793	    -11.64472817	     -5.27875367	     21.25523707	      0.37097387	    -35.44159460	     -3.27680550	     -6.74251848	    -26.90387836	     -3.12241948	      1.37371085	     26.29110584	    -19.70233458	     -5.00487417	    113.01653738	     99.08235092	     -7.51189706	    -17.65902336	    -13.24063827	    107.06677248	    107.71836896
      1.17000000	     -8.40280827	     -0.90790704	     -2.85086755	     -0.42387467	      0.92814437	     -0.61561412	     40.54214887	     -8.34092905	     -8.72647128	     26.07599358	      0.45511194	    -14.04166635	     -2.44414793	     -6.80156158	     42.67372473	    -11.21926035	     -3.94089984	     25.84438838	      0.45106967	    -30.61464641	     -4.81905244	     -6.80156158	    -26.98359885	     -3.39945887	      0.96772590	     27.10669996	    -21.03197198	     -4.72442766	    114.33498987	     97.69057625	     -7.18365430	    -18.94145538	    -13.37881761	    109.98385090	    106.04027507
      1.18000000	     -8.46745845	     -0.76602275	     -2.34032419	     -0.41290791	      0.90228375	     -0.61761896	     42.27029391	     -9.19726753	     -8.02044161	     29.95277398	      0.52277453	     -7.14364302	     -3.37959313	     -6.91858475	     44.68312587	    -10.83408531	     -2.84330213	     32.22194595	      0.56237905	    -17.11401942	     -5.89075406	     -6.91858475	    -26.81876847	     -3.42717693	     -0.22561719	     28.95986925	    -21.81825303	     -3.67729093	    114.71586703	     96.12753999	     -7.56094445	    -19.61035105	    -15.02514800	    113.24471109	    104.46798485
